<?xml version="1.0" standalone="no"?>
<svg viewBox="0 0 200 200" xmlns="http://www.w3.org/2000/svg">
  <path fill="#FF0066" d="M28.1,-44.5C35.7,-38.9,40.4,-29.8,43.7,-20.5C47,-11.3,48.9,-2,45.7,5.2C42.5,12.3,34.2,17.4,28.5,25.6C22.8,33.8,19.7,45.3,12,53C4.4,60.8,-7.9,64.9,-20.8,64.1C-33.6,63.4,-46.9,57.8,-57.4,48.3C-67.8,38.8,-75.5,25.4,-72,13.7C-68.5,2,-54,-8,-42.2,-13.2C-30.3,-18.3,-21.3,-18.7,-14.7,-24.7C-8.1,-30.7,-4.1,-42.4,3.1,-47.3C10.3,-52.1,20.6,-50.1,28.1,-44.5Z" transform="translate(100 100)" />
</svg>
