<?xml version="1.0" standalone="no"?>
<svg viewBox="0 0 200 200" xmlns="http://www.w3.org/2000/svg">
  <path fill="#FF0066" d="M20.8,-36.3C29.6,-26.6,41.2,-25.4,41.7,-20.2C42.2,-15.1,31.5,-6.1,28.3,2.9C25.2,11.8,29.6,20.6,28,26.5C26.4,32.3,18.8,35.1,10.2,40.2C1.6,45.3,-8,52.6,-22.3,57C-36.6,61.5,-55.6,63,-62.2,54.4C-68.8,45.8,-63.1,27,-52.7,15.3C-42.4,3.6,-27.5,-1.1,-23.7,-11.4C-19.8,-21.7,-27.1,-37.6,-25,-50.4C-23,-63.2,-11.5,-72.7,-2.8,-68.4C6,-64.2,12,-46,20.8,-36.3Z" transform="translate(100 100)" />
</svg>
