<?xml version="1.0" standalone="no"?>
<svg viewBox="0 0 200 200" xmlns="http://www.w3.org/2000/svg">
  <path fill="#FF0066" d="M12.5,-27.9C19.2,-15.1,29.7,-16.7,43.8,-12.3C57.9,-7.8,75.5,2.8,76.5,12.5C77.5,22.2,61.8,31.1,48.8,37.3C35.7,43.6,25.3,47.2,14.6,50.8C3.9,54.4,-7,57.9,-12.7,52.2C-18.4,46.5,-18.8,31.6,-24.1,22.5C-29.4,13.5,-39.6,10.3,-41.4,5.3C-43.1,0.3,-36.3,-6.6,-36,-20.3C-35.7,-33.9,-41.9,-54.4,-37,-68C-32.1,-81.6,-16,-88.2,-6.6,-78C2.9,-67.8,5.8,-40.6,12.5,-27.9Z" transform="translate(100 100)" />
</svg>
